# xmcd CD database file
#
# Track frame offsets:
#	150
#	20456
#	48973
#	75381
#	96602
#	129162
#	148499
#	174274
#	194827
#	218702
#
# Disc length: 3322 seconds
#
# Revision: 0
# Processed by: cddbd v1.5.1PL0 Copyright (c) Steve Scherf et al.
# Submitted via: CDex 1.51
#
DISCID=8c0cf80a
DTITLE=Michiko Suzuki - Sweet And Bitter
DYEAR=2004
DGENRE=Jazz
TTITLE0=All Or Nothing
TTITLE1=Fine And Mellow
TTITLE2=Embraceable You
TTITLE3=Follin Myself
TTITLE4=Bird Alone
TTITLE5=East Of The Sun
TTITLE6=Crazy He Calls Me
TTITLE7=I Cover The Waterfront
TTITLE8=Don't Explain
TTITLE9=I lLove You More Today Than Yesterday
EXTD=YEAR: 2004
EXTT0=
EXTT1=
EXTT2=
EXTT3=
EXTT4=
EXTT5=
EXTT6=
EXTT7=
EXTT8=
EXTT9=
PLAYORDER=
